<svg xmlns="http://www.w3.org/2000/svg" viewBox="0 0 100 100" width="200" height="200"><defs><radialGradient id="bg" cx="50%" cy="50%" r="50%"><stop offset="0%" stop-color="#1a1f3a"/><stop offset="100%" stop-color="#030108"/></radialGradient></defs><rect width="100" height="100" rx="18" fill="url(#bg)"/><rect x="36" y="34" width="28" height="32" rx="2" fill="#0a0f1a" stroke="#64748B" stroke-width="1.5"/><rect x="38" y="36" width="24" height="5.5" rx="1" fill="#111827" stroke="#64748B" stroke-width="0.7" opacity="0.8"/><circle cx="41" cy="38.75" r="1" fill="#22c55e" opacity="0.8"/><circle cx="44" cy="38.75" r="1" fill="#64748B" opacity="0.5"/><rect x="38" y="43" width="24" height="5.5" rx="1" fill="#111827" stroke="#64748B" stroke-width="0.7" opacity="0.8"/><circle cx="41" cy="45.75" r="1" fill="#22c55e" opacity="0.8"/><circle cx="44" cy="45.75" r="1" fill="#64748B" opacity="0.5"/><rect x="38" y="50" width="24" height="5.5" rx="1" fill="#111827" stroke="#64748B" stroke-width="0.7" opacity="0.8"/><circle cx="41" cy="52.75" r="1" fill="#22c55e" opacity="0.8"/><circle cx="44" cy="52.75" r="1" fill="#64748B" opacity="0.5"/><rect x="38" y="57" width="24" height="5.5" rx="1" fill="#111827" stroke="#64748B" stroke-width="0.7" opacity="0.8"/><circle cx="41" cy="59.75" r="1" fill="#22c55e" opacity="0.8"/><circle cx="44" cy="59.75" r="1" fill="#64748B" opacity="0.5"/><rect x="38" y="50" width="24" height="12.5" rx="1" fill="#0a1020" stroke="#64748B" stroke-width="0.7"/><rect x="26" y="60" width="36" height="14" rx="1" fill="#050d1f" stroke="#64748B" stroke-width="0.5"/>
       <rect x="28" y="68" width="4" height="4" fill="#64748B" opacity="0.8"/>
       <rect x="34" y="64" width="4" height="8" fill="#64748B" opacity="0.6"/>
       <rect x="40" y="66" width="4" height="6" fill="#64748B" opacity="0.7"/>
       <rect x="46" y="62" width="4" height="10" fill="#64748B" opacity="0.5"/>
       <rect x="52" y="65" width="4" height="7" fill="#64748B" opacity="0.6"/>
       <polyline points="30,67 36,64 42,65 48,61 54,64" stroke="#0ea5e9" stroke-width="0.8" fill="none" opacity="0.8"/><text x="50" y="88" text-anchor="middle" font-family="monospace" font-size="3.5" fill="#64748B" opacity="0.7">BI ANALYST</text><line x1="35.5" y1="38" x2="33" y2="38" stroke="#64748B" stroke-width="0.8" opacity="0.5"/><line x1="64.5" y1="38" x2="67" y2="38" stroke="#64748B" stroke-width="0.8" opacity="0.5"/><line x1="35.5" y1="43" x2="33" y2="43" stroke="#64748B" stroke-width="0.8" opacity="0.5"/><line x1="64.5" y1="43" x2="67" y2="43" stroke="#64748B" stroke-width="0.8" opacity="0.5"/><line x1="35.5" y1="48" x2="33" y2="48" stroke="#64748B" stroke-width="0.8" opacity="0.5"/><line x1="64.5" y1="48" x2="67" y2="48" stroke="#64748B" stroke-width="0.8" opacity="0.5"/><line x1="35.5" y1="53" x2="33" y2="53" stroke="#64748B" stroke-width="0.8" opacity="0.5"/><line x1="64.5" y1="53" x2="67" y2="53" stroke="#64748B" stroke-width="0.8" opacity="0.5"/><line x1="35.5" y1="58" x2="33" y2="58" stroke="#64748B" stroke-width="0.8" opacity="0.5"/><line x1="64.5" y1="58" x2="67" y2="58" stroke="#64748B" stroke-width="0.8" opacity="0.5"/></svg>