<svg xmlns="http://www.w3.org/2000/svg" viewBox="0 0 120 120" width="120" height="120" role="img">
  <title>CISO — Watchtower</title>
  <desc>NEXUS AI Agent 9: CISO, Watchtower, Age 43</desc>

  <!-- Department color background ring -->
  <circle cx="60" cy="60" r="58" fill="#00D9FF" opacity="0.08"/>
  <circle cx="60" cy="60" r="58" fill="none" stroke="#00D9FF" stroke-width="2.5"/>

  <!-- Inner background -->
  <circle cx="60" cy="60" r="54" fill="#0A0E27" opacity="0.7"/>

  <!-- Neck -->
  <rect x="48" y="90" width="24" height="22" rx="4" fill="#E8B89A"/>
  <rect x="48" y="90" width="24" height="4"  rx="0" fill="#D49A7C" opacity="0.4"/>

  <!-- Shoulders hint -->
  <path d="M28,120 Q28,120 48,112 L72,112 Q92,120 92,120"
        fill="#D49A7C" opacity="0.5"/>

  <!-- Hair (behind face) -->
  
        <!-- Hair: crew cut -->
        <ellipse cx="60" cy="44" rx="33" ry="18" fill="#555555"/>
        <path d="M27,62 Q60,22 93,62" fill="#555555"/>

  <!-- Face oval -->
  <ellipse cx="60" cy="58" rx="36" ry="42" fill="#E8B89A"/>

  <!-- Facial shadow / cheek depth -->
  <ellipse cx="60" cy="66" rx="36" ry="34" fill="#D49A7C" opacity="0.08"/>

  <!-- Ears -->
  <ellipse cx="24" cy="60" rx="5" ry="8"  fill="#E8B89A"/>
  <ellipse cx="24" cy="60" rx="3" ry="5"  fill="#D49A7C" opacity="0.4"/>
  <ellipse cx="96" cy="60" rx="5" ry="8"  fill="#E8B89A"/>
  <ellipse cx="96" cy="60" rx="3" ry="5"  fill="#D49A7C" opacity="0.4"/>

  <!-- Eyebrows -->
  <path d="M35,43 Q44,37 53,44" fill="none" stroke="#555555" stroke-width="2" stroke-linecap="round"/>
             <path d="M67,44 Q76,37 85,43" fill="none" stroke="#555555" stroke-width="2" stroke-linecap="round"/>

  <!-- Eyes -->
  
        <circle cx="44" cy="54" r="8" fill="white"/>
        <circle cx="44" cy="54" r="5" fill="#2E7D52"/>
        <circle cx="44" cy="54" r="3" fill="#0A0A0A"/>
        <circle cx="46" cy="52" r="1.5" fill="white" opacity="0.8"/>
        <circle cx="76" cy="54" r="8" fill="white"/>
        <circle cx="76" cy="54" r="5" fill="#2E7D52"/>
        <circle cx="76" cy="54" r="3" fill="#0A0A0A"/>
        <circle cx="78" cy="52" r="1.5" fill="white" opacity="0.8"/>

  <!-- Nose -->
  <line x1="60" y1="62" x2="60" y2="72" stroke="#D49A7C" stroke-width="1.5" stroke-linecap="round" opacity="0.4"/>
                   <path d="M55,72 Q60,76 65,72" fill="none" stroke="#D49A7C" stroke-width="1.25" stroke-linecap="round" opacity="0.5"/>

  <!-- Mouth -->
  <path d="M50,74 Q60,84 70,74" fill="none" stroke="#C4725A" stroke-width="2.5" stroke-linecap="round"/>
              <path d="M52,75 Q60,83 68,75" fill="#C4725A" opacity="0.25"/>

  <!-- Accessories -->
  

  <!-- Tier badge -->
  
    <!-- Tier badge -->
    <circle cx="92" cy="92" r="12" fill="#0A0E27" stroke="#F59E0B" stroke-width="2"/>
    <text x="92" y="97" font-family="'Arial Black',Arial,sans-serif" font-size="9" font-weight="900"
          fill="#F59E0B" text-anchor="middle">C0</text>

  <!-- Agent code label -->
  <text x="60" y="116" font-family="'Arial',sans-serif" font-size="7" font-weight="600"
        fill="#00D9FF" text-anchor="middle" opacity="0.9">CISO</text>
</svg>