<svg xmlns="http://www.w3.org/2000/svg" viewBox="0 0 100 100" width="200" height="200"><defs><radialGradient id="bg" cx="50%" cy="50%" r="50%"><stop offset="0%" stop-color="#1a1f3a"/><stop offset="100%" stop-color="#030108"/></radialGradient></defs><rect width="100" height="100" rx="18" fill="url(#bg)"/><line x1="50" y1="26" x2="50" y2="35" stroke="#EC4899" stroke-width="1.5" opacity="0.6"/><line x1="50" y1="35" x2="38" y2="48" stroke="#EC4899" stroke-width="1.5" opacity="0.6"/><line x1="50" y1="35" x2="62" y2="48" stroke="#EC4899" stroke-width="1.5" opacity="0.6"/><line x1="38" y1="48" x2="40" y2="63" stroke="#EC4899" stroke-width="1.5" opacity="0.6"/><line x1="62" y1="48" x2="60" y2="63" stroke="#EC4899" stroke-width="1.5" opacity="0.6"/><line x1="40" y1="63" x2="50" y2="77" stroke="#EC4899" stroke-width="1.5" opacity="0.6"/><line x1="60" y1="63" x2="50" y2="77" stroke="#EC4899" stroke-width="1.5" opacity="0.6"/><line x1="38" y1="48" x2="62" y2="48" stroke="#EC4899" stroke-width="1.5" opacity="0.6"/><circle cx="50" cy="20" r="6" fill="#1a0a1a" stroke="#EC4899" stroke-width="1.5"/><circle cx="50" cy="35" r="5" fill="#1a0a1a" stroke="#EC4899" stroke-width="1.5"/><circle cx="38" cy="48" r="4" fill="#1a0a1a" stroke="#EC4899" stroke-width="1.5"/><circle cx="62" cy="48" r="4" fill="#1a0a1a" stroke="#EC4899" stroke-width="1.5"/><circle cx="40" cy="63" r="4" fill="#1a0a1a" stroke="#EC4899" stroke-width="1.5"/><circle cx="60" cy="63" r="4" fill="#1a0a1a" stroke="#EC4899" stroke-width="1.5"/><circle cx="50" cy="77" r="4" fill="#1a0a1a" stroke="#EC4899" stroke-width="1.5"/><rect x="43" y="29" width="14" height="12" rx="1.5" fill="none" stroke="#EC4899" stroke-width="1.2"/>
       <rect x="44.5" y="30.5" width="11" height="4" rx="0.5" fill="rgba(236,72,153,0.2)"/>
       <circle cx="46" cy="38" r="1" fill="#EC4899" opacity="0.7"/>
       <circle cx="50" cy="38" r="1" fill="#EC4899" opacity="0.7"/>
       <circle cx="54" cy="38" r="1" fill="#EC4899" opacity="0.7"/>
       <text x="50" y="34" text-anchor="middle" font-size="3" fill="#EC4899" opacity="0.9">$</text><path d="M50,51.6 Q46,47.6 46,50 Q46,53.2 50,55.6 Q54,53.2 54,50 Q54,47.6 50,51.6 Z" fill="#EC4899" opacity="0.85"/></svg>