<svg xmlns="http://www.w3.org/2000/svg" viewBox="0 0 100 100" width="200" height="200"><defs><radialGradient id="bg" cx="50%" cy="50%" r="50%"><stop offset="0%" stop-color="#1a1f3a"/><stop offset="100%" stop-color="#030108"/></radialGradient></defs><rect width="100" height="100" rx="18" fill="url(#bg)"/>
  <!-- Bright community-orange head — charismatic, energetic oval -->
  <ellipse cx="50" cy="46" rx="27" ry="28" fill="#1a0d04" stroke="#f97316" stroke-width="1.6"/>
  <!-- Conference stage marks: spotlight beams from top -->
  <path d="M30,10 L38,32" stroke="#f97316" stroke-width="0.8" opacity="0.3" stroke-dasharray="2,2"/>
  <path d="M50,8 L50,30" stroke="#f97316" stroke-width="1" opacity="0.4" stroke-dasharray="2,2"/>
  <path d="M70,10 L62,32" stroke="#f97316" stroke-width="0.8" opacity="0.3" stroke-dasharray="2,2"/>
  <!-- Brow: raised enthusiastic -->
  <path d="M23,37 Q36,30 50,33 Q64,30 77,37" fill="none" stroke="#f97316" stroke-width="1.2"/>
  <!-- Left eye: OSI open-source iris (6-pointed wheel) -->
  <ellipse cx="35" cy="47" rx="9" ry="7.5" fill="#100600" stroke="#f97316" stroke-width="1.3"/>
  <circle cx="35" cy="47" r="5.5" fill="none" stroke="#f97316" stroke-width="0.8"/>
  <!-- OSI circle with spokes -->
  <circle cx="35" cy="47" r="2" fill="none" stroke="#f97316" stroke-width="0.7"/>
  <line x1="35" y1="41.5" x2="35" y2="44.5" stroke="#f97316" stroke-width="0.7" opacity="0.7"/>
  <line x1="35" y1="49.5" x2="35" y2="52.5" stroke="#f97316" stroke-width="0.7" opacity="0.7"/>
  <line x1="29.5" y1="47" x2="32.5" y2="47" stroke="#f97316" stroke-width="0.7" opacity="0.7"/>
  <line x1="37.5" y1="47" x2="40.5" y2="47" stroke="#f97316" stroke-width="0.7" opacity="0.7"/>
  <line x1="31.3" y1="43.3" x2="33.4" y2="45.4" stroke="#f97316" stroke-width="0.7" opacity="0.6"/>
  <line x1="36.6" y1="48.6" x2="38.7" y2="50.7" stroke="#f97316" stroke-width="0.7" opacity="0.6"/>
  <circle cx="35" cy="47" r="1.2" fill="#f97316" opacity="0.95"/>
  <!-- Right eye: OSI iris -->
  <ellipse cx="65" cy="47" rx="9" ry="7.5" fill="#100600" stroke="#f97316" stroke-width="1.3"/>
  <circle cx="65" cy="47" r="5.5" fill="none" stroke="#f97316" stroke-width="0.8"/>
  <circle cx="65" cy="47" r="2" fill="none" stroke="#f97316" stroke-width="0.7"/>
  <line x1="65" y1="41.5" x2="65" y2="44.5" stroke="#f97316" stroke-width="0.7" opacity="0.7"/>
  <line x1="65" y1="49.5" x2="65" y2="52.5" stroke="#f97316" stroke-width="0.7" opacity="0.7"/>
  <line x1="59.5" y1="47" x2="62.5" y2="47" stroke="#f97316" stroke-width="0.7" opacity="0.7"/>
  <line x1="67.5" y1="47" x2="70.5" y2="47" stroke="#f97316" stroke-width="0.7" opacity="0.7"/>
  <line x1="61.3" y1="43.3" x2="63.4" y2="45.4" stroke="#f97316" stroke-width="0.7" opacity="0.6"/>
  <line x1="66.6" y1="48.6" x2="68.7" y2="50.7" stroke="#f97316" stroke-width="0.7" opacity="0.6"/>
  <circle cx="65" cy="47" r="1.2" fill="#f97316" opacity="0.95"/>
  <!-- Nose: wide expressive -->
  <path d="M46,55 Q50,60 54,55" stroke="#f97316" stroke-width="0.9" fill="none" opacity="0.6"/>
  <!-- Mouth: big energetic smile -->
  <path d="M35,65 Q50,74 65,65" stroke="#f97316" stroke-width="1.5" fill="none"/>
  <text x="50" y="93" text-anchor="middle" font-family="monospace" font-size="3.5" fill="#f97316" opacity="0.9">DIR-DEVREL</text>
</svg>