<svg xmlns="http://www.w3.org/2000/svg" viewBox="0 0 100 100" width="200" height="200"><defs><radialGradient id="bg" cx="50%" cy="50%" r="50%"><stop offset="0%" stop-color="#1a1f3a"/><stop offset="100%" stop-color="#030108"/></radialGradient></defs><rect width="100" height="100" rx="18" fill="url(#bg)"/>
    <defs>
      <radialGradient id="pe-cg" cx="50%" cy="40%" r="55%">
        <stop offset="0%" stop-color="#8B5CF6"/>
        <stop offset="100%" stop-color="#4C1D95"/>
      </radialGradient>
    </defs>
    <!-- Uplink -->
    <line x1="50" y1="11" x2="50" y2="27" stroke="#7C3AED" stroke-width="1" opacity="0.6"/>
    <circle cx="50" cy="10" r="1.5" fill="#A78BFA"/>
    <!-- Cloud body -->
    <ellipse cx="50" cy="49" rx="24" ry="11.5" fill="url(#pe-cg)" stroke="#7C3AED" stroke-width="1.3"/>
    <ellipse cx="38" cy="43" rx="11.5" ry="8.5" fill="url(#pe-cg)" stroke="#7C3AED" stroke-width="1.1"/>
    <ellipse cx="58" cy="43" rx="12" ry="9" fill="url(#pe-cg)" stroke="#7C3AED" stroke-width="1.1"/>
    <ellipse cx="50" cy="39" rx="9" ry="6.5" fill="url(#pe-cg)" stroke="#7C3AED" stroke-width="0.9"/>
    <!-- API Hexagon inside cloud -->
    <polygon points="50,39 55.2,42 55.2,48 50,51 44.8,48 44.8,42" fill="#2e1065" stroke="#C4B5FD" stroke-width="0.9"/>
    <text x="50" y="46.5" font-family="monospace" font-size="4" fill="#EDE9FE" text-anchor="middle" font-weight="bold">API</text>
    <!-- Connection nodes on hexagon edges -->
    <circle cx="50" cy="39" r="1" fill="#22C55E"/>
    <circle cx="55.2" cy="42" r="1" fill="#22C55E"/>
    <circle cx="55.2" cy="48" r="1" fill="#22C55E"/>
    <circle cx="50" cy="51" r="1" fill="#F59E0B"/>
    <circle cx="44.8" cy="48" r="1" fill="#F59E0B"/>
    <circle cx="44.8" cy="42" r="1" fill="#F59E0B"/>
    <!-- Label -->
    <text x="50" y="63" font-family="monospace" font-size="4.5" fill="#DDD6FE" text-anchor="middle">ENG</text>
    <!-- Server rack -->
    <rect x="36" y="67" width="28" height="19" rx="3" fill="#1e1b4b" stroke="#7C3AED" stroke-width="1"/>
    <rect x="39" y="70" width="22" height="3" rx="1" fill="#4C1D95" stroke="#7C3AED" stroke-width="0.5"/>
    <rect x="39" y="75" width="22" height="3" rx="1" fill="#4C1D95" stroke="#7C3AED" stroke-width="0.5"/>
    <rect x="39" y="80" width="22" height="2.5" rx="1" fill="#4C1D95" stroke="#7C3AED" stroke-width="0.5"/>
    <circle cx="57" cy="71.5" r="1" fill="#22C55E"/>
    <circle cx="57" cy="76.5" r="1" fill="#22C55E"/>
    <circle cx="57" cy="81.5" r="1" fill="#22C55E"/>
  </svg>