<svg xmlns="http://www.w3.org/2000/svg" viewBox="0 0 100 100" width="200" height="200">
<defs>
  <radialGradient id="bg" cx="50%" cy="50%" r="50%"><stop offset="0%" stop-color="#1a1f3a"/><stop offset="100%" stop-color="#030108"/></radialGradient>
</defs>
<rect width="100" height="100" rx="18" fill="url(#bg)"/>

<defs>
  <linearGradient id="sec-gate" x1="0%" y1="0%" x2="0%" y2="100%"><stop offset="0%" stop-color="#F87171"/><stop offset="100%" stop-color="#991B1B"/></linearGradient>
  <filter id="sec-glow"><feGaussianBlur stdDeviation="1.2" result="b"/><feMerge><feMergeNode in="b"/><feMergeNode in="SourceGraphic"/></feMerge></filter>
</defs>
<!-- hexagonal portal frame -->
<path d="M50,10 L75,25 L75,55 L50,70 L25,55 L25,25 Z" fill="#0A0000" stroke="#EF4444" stroke-width="2.5"/>
<path d="M50,7 L78,23 L78,57 L50,73 L22,57 L22,23 Z" fill="none" stroke="#EF4444" stroke-width="0.8" opacity="0.25"/>
<!-- gate bars: red accent -->
<rect x="32" y="25" width="5" height="30" rx="1.5" fill="url(#sec-gate)" opacity="0.9"/>
<rect x="41" y="25" width="5" height="30" rx="1.5" fill="url(#sec-gate)" opacity="0.9"/>
<rect x="54" y="25" width="5" height="30" rx="1.5" fill="url(#sec-gate)" opacity="0.9"/>
<rect x="63" y="25" width="5" height="30" rx="1.5" fill="url(#sec-gate)" opacity="0.9"/>
<rect x="30" y="24" width="40" height="4" rx="1" fill="#EF4444" opacity="0.8"/>
<rect x="30" y="52" width="40" height="4" rx="1" fill="#EF4444" opacity="0.8"/>
<!-- center lock: magnifying glass -->
<circle cx="50" cy="40" r="9" fill="#0A0000" stroke="#EF4444" stroke-width="1.5" filter="url(#sec-glow)"/>
<!-- magnifying glass circle -->
<circle cx="48" cy="38" r="5" fill="none" stroke="#EF4444" stroke-width="1.5"/>
<circle cx="48" cy="38" r="3" fill="#1A0000" stroke="#F87171" stroke-width="0.6" opacity="0.5"/>
<!-- lens cross-hairs -->
<line x1="48" y1="35" x2="48" y2="41" stroke="#EF4444" stroke-width="0.5" opacity="0.6"/>
<line x1="45" y1="38" x2="51" y2="38" stroke="#EF4444" stroke-width="0.5" opacity="0.6"/>
<!-- handle -->
<line x1="51.5" y1="42" x2="56" y2="47" stroke="#EF4444" stroke-width="2" stroke-linecap="round"/>
<!-- alert triangle on glass -->
<polygon points="48,35.5 46.5,38.5 49.5,38.5" fill="#F87171" opacity="0.9"/>
<!-- label -->
<text x="50" y="87" font-size="4.5" fill="#EF4444" font-family="monospace" font-weight="bold" text-anchor="middle">SEC-REVIEW</text>
<ellipse cx="50" cy="78" rx="20" ry="2.5" fill="rgba(239,68,68,0.2)"/>
</svg>