<svg xmlns="http://www.w3.org/2000/svg" viewBox="0 0 120 120" width="120" height="120" role="img">
  <title>SR-MLE — Tensor</title>
  <desc>NEXUS AI Agent 95: SR-MLE, Tensor, Age 33</desc>

  <!-- Department color background ring -->
  <circle cx="60" cy="60" r="58" fill="#F59E0B" opacity="0.08"/>
  <circle cx="60" cy="60" r="58" fill="none" stroke="#F59E0B" stroke-width="2.5"/>

  <!-- Inner background -->
  <circle cx="60" cy="60" r="54" fill="#0A0E27" opacity="0.7"/>

  <!-- Neck -->
  <rect x="48" y="90" width="24" height="22" rx="4" fill="#FDD9B5"/>
  <rect x="48" y="90" width="24" height="4"  rx="0" fill="#F0C49A" opacity="0.4"/>

  <!-- Shoulders hint -->
  <path d="M28,120 Q28,120 48,112 L72,112 Q92,120 92,120"
        fill="#F0C49A" opacity="0.5"/>

  <!-- Hair (behind face) -->
  
        <!-- Hair: crew cut -->
        <ellipse cx="60" cy="44" rx="33" ry="18" fill="#6B4A32"/>
        <path d="M27,62 Q60,22 93,62" fill="#6B4A32"/>

  <!-- Face oval -->
  <ellipse cx="60" cy="58" rx="36" ry="42" fill="#FDD9B5"/>

  <!-- Facial shadow / cheek depth -->
  <ellipse cx="60" cy="66" rx="36" ry="34" fill="#F0C49A" opacity="0.08"/>

  <!-- Ears -->
  <ellipse cx="24" cy="60" rx="5" ry="8"  fill="#FDD9B5"/>
  <ellipse cx="24" cy="60" rx="3" ry="5"  fill="#F0C49A" opacity="0.4"/>
  <ellipse cx="96" cy="60" rx="5" ry="8"  fill="#FDD9B5"/>
  <ellipse cx="96" cy="60" rx="3" ry="5"  fill="#F0C49A" opacity="0.4"/>

  <!-- Eyebrows -->
  <path d="M35,43 Q44,37 53,44" fill="none" stroke="#6B4A32" stroke-width="2" stroke-linecap="round"/>
             <path d="M67,44 Q76,37 85,43" fill="none" stroke="#6B4A32" stroke-width="2" stroke-linecap="round"/>

  <!-- Eyes -->
  
        <ellipse cx="44" cy="54" rx="10" ry="7" fill="white"/>
        <circle  cx="44" cy="54" r="5.5" fill="#5A6A7A"/>
        <circle  cx="44" cy="54" r="3"   fill="#0A0A0A"/>
        <circle  cx="46.5" cy="52" r="1.8" fill="white" opacity="0.9"/>
        <ellipse cx="76" cy="54" rx="10" ry="7" fill="white"/>
        <circle  cx="76" cy="54" r="5.5" fill="#5A6A7A"/>
        <circle  cx="76" cy="54" r="3"   fill="#0A0A0A"/>
        <circle  cx="78.5" cy="52" r="1.8" fill="white" opacity="0.9"/>

  <!-- Nose -->
  <path d="M57,67 Q55,74 60,75 Q65,74 63,67" fill="none" stroke="#F0C49A" stroke-width="1.25" opacity="0.5"/>

  <!-- Mouth -->
  <path d="M50,77 Q55,81 60,78 Q65,75 70,77" fill="none" stroke="#D4876B" stroke-width="2" stroke-linecap="round"/>

  <!-- Accessories -->
  

  <!-- Tier badge -->
  
    <!-- Tier badge -->
    <circle cx="92" cy="92" r="12" fill="#0A0E27" stroke="#F59E0B" stroke-width="2"/>
    <text x="92" y="97" font-family="'Arial Black',Arial,sans-serif" font-size="9" font-weight="900"
          fill="#F59E0B" text-anchor="middle">T5</text>

  <!-- Agent code label -->
  <text x="60" y="116" font-family="'Arial',sans-serif" font-size="7" font-weight="600"
        fill="#F59E0B" text-anchor="middle" opacity="0.9">SR-MLE</text>
</svg>