<svg xmlns="http://www.w3.org/2000/svg" viewBox="0 0 120 120" width="120" height="120" role="img">
  <title>SR-STAFF — Anchor</title>
  <desc>NEXUS AI Agent 27: SR-STAFF, Anchor, Age 38</desc>

  <!-- Department color background ring -->
  <circle cx="60" cy="60" r="58" fill="#10B981" opacity="0.08"/>
  <circle cx="60" cy="60" r="58" fill="none" stroke="#10B981" stroke-width="2.5"/>

  <!-- Inner background -->
  <circle cx="60" cy="60" r="54" fill="#0A0E27" opacity="0.7"/>

  <!-- Neck -->
  <rect x="48" y="90" width="24" height="22" rx="4" fill="#FDD9B5"/>
  <rect x="48" y="90" width="24" height="4"  rx="0" fill="#F0C49A" opacity="0.4"/>

  <!-- Shoulders hint -->
  <path d="M28,120 Q28,120 48,112 L72,112 Q92,120 92,120"
        fill="#F0C49A" opacity="0.5"/>

  <!-- Hair (behind face) -->
  
        <!-- Hair: undercut -->
        <ellipse cx="60" cy="42" rx="32" ry="18" fill="#6B4A32"/>
        <path d="M28,60 Q60,20 92,60" fill="#6B4A32"/>
        <line x1="26" y1="60" x2="26" y2="76" stroke="#6B4A32" stroke-width="4"/>
        <line x1="94" y1="60" x2="94" y2="76" stroke="#6B4A32" stroke-width="4"/>

  <!-- Face oval -->
  <ellipse cx="60" cy="58" rx="36" ry="42" fill="#FDD9B5"/>

  <!-- Facial shadow / cheek depth -->
  <ellipse cx="60" cy="66" rx="36" ry="34" fill="#F0C49A" opacity="0.08"/>

  <!-- Ears -->
  <ellipse cx="24" cy="60" rx="5" ry="8"  fill="#FDD9B5"/>
  <ellipse cx="24" cy="60" rx="3" ry="5"  fill="#F0C49A" opacity="0.4"/>
  <ellipse cx="96" cy="60" rx="5" ry="8"  fill="#FDD9B5"/>
  <ellipse cx="96" cy="60" rx="3" ry="5"  fill="#F0C49A" opacity="0.4"/>

  <!-- Eyebrows -->
  <line x1="35" y1="46" x2="53" y2="43" stroke="#6B4A32" stroke-width="2.5" stroke-linecap="round"/>
                   <line x1="67" y1="43" x2="85" y2="46" stroke="#6B4A32" stroke-width="2.5" stroke-linecap="round"/>

  <!-- Eyes -->
  
        <ellipse cx="44" cy="54" rx="10" ry="7" fill="white"/>
        <circle  cx="44" cy="54" r="5.5" fill="#2E7D52"/>
        <circle  cx="44" cy="54" r="3"   fill="#0A0A0A"/>
        <circle  cx="46.5" cy="52" r="1.8" fill="white" opacity="0.9"/>
        <ellipse cx="76" cy="54" rx="10" ry="7" fill="white"/>
        <circle  cx="76" cy="54" r="5.5" fill="#2E7D52"/>
        <circle  cx="76" cy="54" r="3"   fill="#0A0A0A"/>
        <circle  cx="78.5" cy="52" r="1.8" fill="white" opacity="0.9"/>

  <!-- Nose -->
  <path d="M58,62 L55,74 Q60,76 65,74 L62,62" fill="none" stroke="#F0C49A" stroke-width="1.25" stroke-linecap="round" opacity="0.6"/>

  <!-- Mouth -->
  <line x1="50" y1="76" x2="70" y2="76" stroke="#D4876B" stroke-width="2.5" stroke-linecap="round"/>

  <!-- Accessories -->
  

  <!-- Tier badge -->
  
    <!-- Tier badge -->
    <circle cx="92" cy="92" r="12" fill="#0A0E27" stroke="#10B981" stroke-width="2"/>
    <text x="92" y="97" font-family="'Arial Black',Arial,sans-serif" font-size="9" font-weight="900"
          fill="#10B981" text-anchor="middle">T4</text>

  <!-- Agent code label -->
  <text x="60" y="116" font-family="'Arial',sans-serif" font-size="7" font-weight="600"
        fill="#10B981" text-anchor="middle" opacity="0.9">SR-STAFF</text>
</svg>