<svg xmlns="http://www.w3.org/2000/svg" viewBox="0 0 100 100" width="200" height="200">
<defs><radialGradient id="bg" cx="50%" cy="50%" r="50%"><stop offset="0%" stop-color="#1a1f3a"/><stop offset="100%" stop-color="#030108"/></radialGradient></defs><rect width="100" height="100" rx="18" fill="url(#bg)"/>
<defs>
  <radialGradient id="sree-skin" cx="45%" cy="35%" r="58%">
    <stop offset="0%" stop-color="#4E6E9A"/>
    <stop offset="60%" stop-color="#1E3A6A"/>
    <stop offset="100%" stop-color="#0A1830"/>
  </radialGradient>
  <radialGradient id="sree-iris" cx="40%" cy="35%" r="55%">
    <stop offset="0%" stop-color="#EF4444"/>
    <stop offset="30%" stop-color="#22C55E"/>
    <stop offset="70%" stop-color="#22C55E"/>
    <stop offset="100%" stop-color="#15803D"/>
  </radialGradient>
  <filter id="sree-glow"><feGaussianBlur stdDeviation="1.5" result="b"/><feMerge><feMergeNode in="b"/><feMergeNode in="SourceGraphic"/></feMerge></filter>
</defs>
<!-- On-call headset arc around head -->
<path d="M20,42 Q22,24 50,22 Q78,24 80,42" fill="none" stroke="#3A6090" stroke-width="2.5" stroke-linecap="round"/>
<circle cx="19" cy="43" r="4" fill="#1E3A6A" stroke="#3A6090" stroke-width="1.2"/>
<circle cx="81" cy="43" r="4" fill="#1E3A6A" stroke="#3A6090" stroke-width="1.2"/>
<!-- Mic boom on left -->
<line x1="17" y1="45" x2="14" y2="52" stroke="#3A6090" stroke-width="1.2"/>
<circle cx="13" cy="53" r="2" fill="#22C55E" opacity="0.9"/>
<!-- Round alert face -->
<circle cx="50" cy="50" r="26" fill="url(#sree-skin)" stroke="#3A6090" stroke-width="1.3"/>
<!-- Left eye: heartbeat/pulse iris -->
<circle cx="38" cy="47" r="8" fill="#0A1428" stroke="#3A6090" stroke-width="1.2"/>
<circle cx="38" cy="47" r="5.5" fill="url(#sree-iris)"/>
<!-- Pulse/heartbeat line in iris -->
<polyline points="33,47 35,47 36,44 37.5,50 39,44 40.5,47.5 42.5,47.5" fill="none" stroke="#FFFFFF" stroke-width="0.9" opacity="0.95"/>
<circle cx="38" cy="46" r="0.9" fill="#FAFAFA" filter="url(#sree-glow)"/>
<!-- Right eye: heartbeat/pulse iris -->
<circle cx="62" cy="47" r="8" fill="#0A1428" stroke="#3A6090" stroke-width="1.2"/>
<circle cx="62" cy="47" r="5.5" fill="url(#sree-iris)"/>
<polyline points="57,47 59,47 60,44 61.5,50 63,44 64.5,47.5 66.5,47.5" fill="none" stroke="#FFFFFF" stroke-width="0.9" opacity="0.95"/>
<circle cx="62" cy="46" r="0.9" fill="#FAFAFA" filter="url(#sree-glow)"/>
<!-- Alert wide mouth -->
<path d="M40,60 Q50,65 60,60" fill="none" stroke="#4E6E9A" stroke-width="1.5" stroke-linecap="round"/>
<!-- Body -->
<path d="M28,73 L23,88 L50,87 L77,88 L72,73 Z" fill="#0A1830" stroke="#3A6090" stroke-width="1"/>
<line x1="33" y1="79" x2="67" y2="79" stroke="#1E3A6A" stroke-width="0.7" opacity="0.6"/>
<!-- On-call badge -->
<rect x="43" y="81" width="14" height="5" rx="1.5" fill="#1E3A6A" stroke="#22C55E" stroke-width="0.8"/>
<circle cx="47" cy="83.5" r="1.2" fill="#22C55E" opacity="0.9"/>
<text x="53" y="84.5" font-family="monospace" font-size="3.5" fill="#A0C8A0" text-anchor="middle">ON</text>
<ellipse cx="50" cy="93" rx="21" ry="2.5" fill="rgba(78,110,154,0.15)"/>
</svg>