<svg xmlns="http://www.w3.org/2000/svg" viewBox="0 0 100 100" width="200" height="200"><defs><radialGradient id="bg" cx="50%" cy="50%" r="50%"><stop offset="0%" stop-color="#1a1f3a"/><stop offset="100%" stop-color="#030108"/></radialGradient></defs><rect width="100" height="100" rx="18" fill="url(#bg)"/><line x1="50" y1="24" x2="50" y2="32" stroke="#EC4899" stroke-width="1.5" opacity="0.6"/><line x1="50" y1="32" x2="36" y2="46" stroke="#EC4899" stroke-width="1.5" opacity="0.6"/><line x1="50" y1="32" x2="64" y2="46" stroke="#EC4899" stroke-width="1.5" opacity="0.6"/><line x1="36" y1="46" x2="38" y2="63" stroke="#EC4899" stroke-width="1.5" opacity="0.6"/><line x1="64" y1="46" x2="62" y2="63" stroke="#EC4899" stroke-width="1.5" opacity="0.6"/><line x1="38" y1="63" x2="50" y2="80" stroke="#EC4899" stroke-width="1.5" opacity="0.6"/><line x1="62" y1="63" x2="50" y2="80" stroke="#EC4899" stroke-width="1.5" opacity="0.6"/><line x1="36" y1="46" x2="64" y2="46" stroke="#EC4899" stroke-width="1.5" opacity="0.6"/><circle cx="50" cy="16" r="8" fill="#1a0a1a" stroke="#EC4899" stroke-width="1.5"/><circle cx="50" cy="32" r="6" fill="#1a0a1a" stroke="#EC4899" stroke-width="1.5"/><circle cx="36" cy="46" r="5" fill="#1a0a1a" stroke="#EC4899" stroke-width="1.5"/><circle cx="64" cy="46" r="5" fill="#1a0a1a" stroke="#EC4899" stroke-width="1.5"/><circle cx="38" cy="63" r="5" fill="#1a0a1a" stroke="#EC4899" stroke-width="1.5"/><circle cx="62" cy="63" r="5" fill="#1a0a1a" stroke="#EC4899" stroke-width="1.5"/><circle cx="50" cy="80" r="5" fill="#1a0a1a" stroke="#EC4899" stroke-width="1.5"/><path d="M43,14 L45,9 L50,12 L55,9 L57,14 Z" fill="#EC4899" opacity="0.95"/>
       <path d="M44,14 L56,14" stroke="#EC4899" stroke-width="1"/><path d="M50,50.4 Q44,44.4 44,48 Q44,52.8 50,56.4 Q56,52.8 56,48 Q56,44.4 50,50.4 Z" fill="#EC4899" opacity="0.85"/><circle cx="50" cy="16" r="10" fill="none" stroke="#EC4899" stroke-width="0.5" opacity="0.3"/></svg>