<svg xmlns="http://www.w3.org/2000/svg" viewBox="0 0 100 100" width="200" height="200">
<defs><radialGradient id="bg" cx="50%" cy="50%" r="50%"><stop offset="0%" stop-color="#1a1f3a"/><stop offset="100%" stop-color="#030108"/></radialGradient></defs><rect width="100" height="100" rx="18" fill="url(#bg)"/>
<defs>
  <linearGradient id="aipm-skin" x1="0%" y1="0%" x2="100%" y2="100%">
    <stop offset="0%" stop-color="#8080E8"/>
    <stop offset="50%" stop-color="#6060C0"/>
    <stop offset="100%" stop-color="#303090"/>
  </linearGradient>
  <radialGradient id="aipm-iris" cx="40%" cy="35%" r="55%">
    <stop offset="0%" stop-color="#D0A8FF"/>
    <stop offset="50%" stop-color="#8040D0"/>
    <stop offset="100%" stop-color="#200050"/>
  </radialGradient>
  <filter id="aipm-glow"><feGaussianBlur stdDeviation="2" result="b"/><feMerge><feMergeNode in="b"/><feMergeNode in="SourceGraphic"/></feMerge></filter>
</defs>
<!-- Small brain symbol on forehead -->
<path d="M46,22 Q46,18 50,17 Q54,18 54,22 Q54,25 50,26 Q46,25 46,22" fill="none" stroke="#C080FF" stroke-width="1"/>
<path d="M47,21 Q50,19 53,21" fill="none" stroke="#C080FF" stroke-width="0.7" opacity="0.7"/>
<path d="M46,22 Q48,24 50,23 Q52,24 54,22" fill="none" stroke="#C080FF" stroke-width="0.7" opacity="0.7"/>
<!-- Neural pulse dots on forehead -->
<circle cx="50" cy="22" r="1.2" fill="#D0A8FF" filter="url(#aipm-glow)" opacity="0.9"/>
<!-- Ethereal face -->
<ellipse cx="50" cy="51" rx="24" ry="25" fill="url(#aipm-skin)" stroke="#7060C8" stroke-width="1.4"/>
<!-- Iridescent skin overlay -->
<ellipse cx="50" cy="46" rx="16" ry="12" fill="rgba(180,140,255,0.1)"/>
<!-- Left eye: neural-network iris -->
<circle cx="38" cy="48" r="8.5" fill="#100020" stroke="#7060C8" stroke-width="1.2"/>
<circle cx="38" cy="48" r="6" fill="url(#aipm-iris)"/>
<!-- Neural network nodes + connections -->
<circle cx="36" cy="50" r="1" fill="#E0C0FF" opacity="0.9"/>
<circle cx="38" cy="46.5" r="1" fill="#E0C0FF" opacity="0.9"/>
<circle cx="40" cy="50" r="1" fill="#E0C0FF" opacity="0.9"/>
<circle cx="38" cy="50" r="0.7" fill="#FFFFFF" opacity="0.6"/>
<line x1="36" y1="50" x2="38" y2="46.5" stroke="#C0A0FF" stroke-width="0.5" opacity="0.8"/>
<line x1="38" y1="46.5" x2="40" y2="50" stroke="#C0A0FF" stroke-width="0.5" opacity="0.8"/>
<line x1="36" y1="50" x2="40" y2="50" stroke="#C0A0FF" stroke-width="0.5" opacity="0.8"/>
<circle cx="38" cy="47" r="0.9" fill="#F0E0FF" filter="url(#aipm-glow)"/>
<!-- Right eye: neural-network iris -->
<circle cx="62" cy="48" r="8.5" fill="#100020" stroke="#7060C8" stroke-width="1.2"/>
<circle cx="62" cy="48" r="6" fill="url(#aipm-iris)"/>
<circle cx="60" cy="50" r="1" fill="#E0C0FF" opacity="0.9"/>
<circle cx="62" cy="46.5" r="1" fill="#E0C0FF" opacity="0.9"/>
<circle cx="64" cy="50" r="1" fill="#E0C0FF" opacity="0.9"/>
<circle cx="62" cy="50" r="0.7" fill="#FFFFFF" opacity="0.6"/>
<line x1="60" y1="50" x2="62" y2="46.5" stroke="#C0A0FF" stroke-width="0.5" opacity="0.8"/>
<line x1="62" y1="46.5" x2="64" y2="50" stroke="#C0A0FF" stroke-width="0.5" opacity="0.8"/>
<line x1="60" y1="50" x2="64" y2="50" stroke="#C0A0FF" stroke-width="0.5" opacity="0.8"/>
<circle cx="62" cy="47" r="0.9" fill="#F0E0FF" filter="url(#aipm-glow)"/>
<!-- Ethereal slight smile -->
<path d="M41,61 Q50,67 59,61" fill="none" stroke="#A080E0" stroke-width="1.4" stroke-linecap="round"/>
<!-- Body -->
<path d="M30,73 L26,88 L50,86 L74,88 L70,73 Z" fill="#181030" stroke="#6050B0" stroke-width="1"/>
<line x1="35" y1="79" x2="65" y2="79" stroke="#303080" stroke-width="0.7" opacity="0.6"/>
<!-- Neural dots on body -->
<circle cx="43" cy="82" r="1.5" fill="#A080E0" opacity="0.7"/>
<line x1="44.5" y1="82" x2="49.5" y2="82" stroke="#8060C0" stroke-width="0.6" opacity="0.5"/>
<circle cx="50" cy="82" r="1.5" fill="#A080E0" opacity="0.7"/>
<line x1="51.5" y1="82" x2="56.5" y2="82" stroke="#8060C0" stroke-width="0.6" opacity="0.5"/>
<circle cx="57" cy="82" r="1.5" fill="#A080E0" opacity="0.7"/>
<ellipse cx="50" cy="93" rx="21" ry="2.5" fill="rgba(128,128,232,0.15)"/>
</svg>